# xmcd
#
# Track frame offsets: 
#        150
#        15744
#        29673
#        43979
#        58531
#        71125
#        84425
#        98850
#        113965
#        128766
#
# Disc length: 1889 seconds
#
# Revision: 0
# Processed by: cddbd v1.5.1PL2 Copyright (c) Steve Scherf et al.
# Submitted via: ExactAudioCopy v0.95a5
#
DISCID=8a075f0a
DTITLE=Various Artist - Ladies of Blues Disc 1
DYEAR=1900
DGENRE=Blues
TTITLE0=Mamie Smith - -_Crazy Blues
TTITLE1=Lucille Hegamin - -_Land Of Cotton Blues
TTITLE2=Sara Martin - -_Blind Man Blues
TTITLE3=Eva Taylor - -_Jazzin' Babies Blues
TTITLE4=Esther Bigeou - -_West Indies Blues
TTITLE5=Alberta Hunter - -_Texas Moaner
TTITLE6=Ma Rainey - -_Jetty Bean Blues
TTITLE7=Ethel Waters - -_Shake That Thing
TTITLE8=Clara Smith - -_Shipwrecked Blues
TTITLE9=Bertha Chippie Hill - -_Pratt City Blues
EXTD=
EXTT0=
EXTT1=
EXTT2=
EXTT3=
EXTT4=
EXTT5=
EXTT6=
EXTT7=
EXTT8=
EXTT9=
PLAYORDER=
